<?xml version="1.0" encoding="utf-8"?>
<!-- Generator: Adobe Illustrator 24.3.0, SVG Export Plug-In . SVG Version: 6.00 Build 0)  -->
<svg version="1.1" id="Capa_1" xmlns="http://www.w3.org/2000/svg" xmlns:xlink="http://www.w3.org/1999/xlink" x="0px" y="0px"
	 width="3200px" height="2400px" viewBox="0 0 3200 2400" style="enable-background:new 0 0 3200 2400;" xml:space="preserve">
<style type="text/css">
	.st0{fill:#FFFFFF;}
</style>
<path id="Shape" class="st0" d="M1479.5,489.2h-48.9l-15.7,23.9c-14.7,19.4-17.2,35.4,11.2,34.9l-1.8,5.8h-59.9l1.8-5.8
	c8.3-0.7,15.1-3.4,20.6-8.1c16.4-14.3,95.1-139.3,110.4-160h8.9c-0.3,8.5-6.4,150-6.7,153.9c0.3,13.2,8.2,13.2,20.6,14.3l-1.8,5.8
	h-67l1.8-5.8c13.3-0.5,20.7-1.9,23.7-12.4C1478.1,528.3,1478.9,499,1479.5,489.2z M1479.7,483.3l3.3-72.9l-48.6,72.9H1479.7z
	 M1585.5,523.5h5.5c-8.6,22.5-19.6,33.8-33,33.8c-9.2,0.2-15.4-7.1-15.2-16.2c0-4.6,2.8-15.7,8.2-33.6c2.5-9.2,32.6-105,33.3-111.6
	c0.4-7.4-9.1-5.1-15.1-5.5l1.6-5.3c13.8-0.3,24.1-1.8,30.6-4.6h3.2c-5.4,21.1-45.5,143.2-47.9,161.6c0,10.8,9.7,8.7,16.5,1.6
	C1577.5,539.8,1581.6,533.1,1585.5,523.5z M1663.7,450.5l-1.8,5.5H1643l-16.6,55c-5.1,20.3-14.1,36-3.2,37.7
	c10.6-2.2,19.5-18.6,24.9-30.1h5.5c-5.2,12.6-11,22.1-17.5,28.6c-12,14.4-31.9,13.1-32.2-6.1c0.3-11.2,19.8-69.4,24.1-85.2h-17.4
	l1.8-5.5h17.3l11.6-38.2h15.1l-11.6,38.2H1663.7z M1742.8,448.9h15.1c-3.4,12.6-26.3,82.9-27.4,93.2c2.8,13.5,17.2-0.8,24.6-14.7
	h5.3c-4.9,11.5-18.2,29.6-30.9,29.8c-14.5-0.9-13.6-17.1-9.7-28.7c-37.1,57.5-77.2,18.9-48.3-35.7c8-20.9,56.3-69.2,68.1-33.2
	L1742.8,448.9z M1676.9,533.4c-0.8,22.4,16.4,20.2,30,4.6c7.7-8.2,14.5-20.6,20.2-37.4c5.7-16.8,8.6-28.2,8.6-34.2
	c-4-27.5-30.7-6.8-42.3,17.6C1682.4,504,1676.9,520.6,1676.9,533.4z M1773.9,481.1h-5.5c21-52.6,52.9-42,34.1,14.7
	c9.3-17.4,16.9-46.1,34.7-48.8c5.6-0.2,9.7,4.1,9.7,9.5c0.2,4.5-3,8.6-7.4,8.6c-3.3,0.9-6.5-5-9.7-5.8c-17.3,9.8-36,74.8-43.4,96.4
	h-15.1c4.1-16.1,25.5-79,25.7-92.7C1795.3,441.3,1775.3,474.6,1773.9,481.1z M1264.8,582.1c47-1.2,100.1-10.1,134.8,8.4
	c48.4,24.3,55.4,99.2,20.8,137.4c-23.2,22.7-47.8,23.6-80.7,23.7H1264v-5.8c11.8-0.2,25.5,1.5,27.7-11.4c2.4-13.2,0.7-93,1.2-109.7
	c-0.6-30.4,3-38.3-28.1-36.8L1264.8,582.1L1264.8,582.1z M1317.4,585.7c0.6,21.4-1.1,129.5,0.9,146.8c2.7,13.7,9.7,12.5,25.6,13.2
	c14.9,0,27.1-2.1,36.6-6.1c43.8-21.1,42.8-103.4,12-136.2C1373.2,582.7,1345.2,584.5,1317.4,585.7z M1496.5,644.2
	c0.3,13.6-0.5,81.9,0.5,92.7c1,8.6,9,8.9,17.5,8.9v5.8H1459v-5.8c22.4,1.5,19.4-7.3,19.5-29.6c-0.3-10.5,1-47-1.7-53.4
	c-3-7.7-10.1-5.6-17.8-6V651C1475.8,649.8,1485.8,645.8,1496.5,644.2z M1472.1,591.6c0-17.3,26.1-17.4,26.1,0
	C1498.4,609.1,1472.1,609,1472.1,591.6z M1607.9,657.5c9.6-12.6,31.1-18.8,34.4-1.6c0.6,9.5-10.7,11.4-14.7,3.2
	c-4.8-8.3-10.2-4.7-16.3,1.8c10,15.4,8.6,35.3-4.3,48.6c-7.2,7.8-19.4,12-36.6,12.6c-20.8-0.5-36.3,9.7-20.6,17.4
	c27.2,6.9,81.5-4.3,81.5,38.7c0.3,41-63.7,44.6-90.3,28c-19.1-9.2-19.8-44.6,5.1-39.8c-21.7,25,4.6,45.7,33.6,43.7
	c19.5,0.1,38.2-7,39-26.2c0-8.4-3.1-14.4-9.2-17.8c-9.8-7.4-60.1-4.9-68-12.7c-16.3-12.2-6.9-32.1,15-34.7
	C1495.5,681.4,1562.1,615.2,1607.9,657.5z M1551.1,684.9c-1.8,43,50.2,41.6,47-2.2c0-12.5-2.4-21-7.3-25.7
	c-9.3-9.8-26.8-9.5-33.9,1.6C1553.1,664.5,1551.1,673.2,1551.1,684.9z M1681.9,644.2c0.3,13.6-0.5,81.9,0.5,92.7
	c1,8.6,9,8.9,17.5,8.9v5.8h-55.6v-5.8c22.4,1.5,19.4-7.3,19.5-29.6c-0.3-10.5,1-47-1.7-53.4c-3-7.7-10.1-5.6-17.8-6V651
	C1661.2,649.8,1671.4,645.8,1681.9,644.2z M1657.6,591.6c0-17.3,26.1-17.4,26.1,0C1683.8,609.1,1657.6,609,1657.6,591.6z
	 M1775.7,654.2h-31.1c0.5,12.9-1.2,71.2,1.3,81.7c4.3,14.5,22.5,14.4,29.8,0.7l4,2.4c-7.1,15.8-29.5,22.1-42.9,11.4
	c-12.4-10.9-9.2-18.2-10.2-37.8v-58.5h-15v-5.8c16.4-0.8,26.7-15.3,29-32.3h4v32.3h31.1L1775.7,654.2L1775.7,654.2z M1893.7,732.7
	h4.6c1,27-38.6,29.5-41.2,3.5c-53.2,41.7-87.1-0.2-54.5-26.8c11.4-9.5,37.5-20.2,54.5-26.8c-0.5-12.5,2.1-22.4-8.6-29.1
	c-10.1-7-35.9-4.6-36.3,8.9c-1.4,8.6-4.9,12.8-10.6,12.8c-13.6-1.4-7.3-15.7,2.5-22.7c10-9.5,43.8-11.1,56.6-3.2
	c13.4,8,14,14.9,14.5,31.1v41.7c0,9.7,0.5,16,1.5,18.8C1881.7,749.7,1893,744,1893.7,732.7z M1857.2,688.6
	c-20.9,7.1-48.1,21.2-46.3,38.8c1.4,29.4,31.7,15.4,46.3,2V688.6z M1940.6,578.4c0.3,14.1-0.5,148.5,0.4,158.6
	c0.9,8.8,9.4,8.9,17.8,8.9v5.8h-55.2v-5.8c21.4,1.2,18.6-7.4,18.8-29.6c-1.3-13.8,3.2-112.3-2.9-122.6c-2-2.8-6.6-4.2-14.1-4.2v-5.8
	c7.6,0.2,26.1-2.5,32.3-5.3C1937.8,578.4,1940.6,578.4,1940.6,578.4z"/>
</svg>
